# xmcd CD database file
#
# Track frame offsets:
#	150
#	33382
#	57295
#	73877
#	96380
#	123915
#	143672
#	172097
#	199235
#	238435
#
# Disc length: 3355 seconds
#
# Revision: 0
# Processed by: cddbd v1.5.1PL0 Copyright (c) Steve Scherf et al.
# Submitted via: CDex 1.51
#
DISCID=9b0d190a
DTITLE=Mezcal - Danca
DYEAR=1992
DGENRE=Jazz
TTITLE0=Afro Blue
TTITLE1=Crying in the Mist
TTITLE2=Danza
TTITLE3=Manolito
TTITLE4=Wings
TTITLE5=Carrousell
TTITLE6=Povo
TTITLE7=Tarde in Bruges
TTITLE8=Aladino
TTITLE9=La Sierra
EXTD=YEAR: 1992
EXTT0=
EXTT1=
EXTT2=
EXTT3=
EXTT4=
EXTT5=
EXTT6=
EXTT7=
EXTT8=
EXTT9=
PLAYORDER=
